<svg xmlns="http://www.w3.org/2000/svg" viewBox="0 0 720 320" width="720" height="320" font-family="DejaVu Sans, Arial, Helvetica, sans-serif" font-size="11">
<rect width="720" height="320" fill="#ffffff"/>
<text x="14.0" y="22.0" font-size="13" fill="#0b0b0b" text-anchor="start" font-weight="bold">a</text>
<text x="30.0" y="22.0" font-size="10.5" fill="#0b0b0b" text-anchor="start" font-weight="normal">Score against model capacity</text>
<line x1="14" y1="40" x2="32" y2="40" stroke="#2a78d6" stroke-width="2"/>
<circle cx="23" cy="40" r="4" fill="#2a78d6" stroke="#fff" stroke-width="2"/>
<text x="38.0" y="43.5" font-size="10" fill="#52514e" text-anchor="start" font-weight="normal">random split</text>
<line x1="132" y1="40" x2="150" y2="40" stroke="#eb6834" stroke-width="2"/>
<circle cx="141" cy="40" r="4" fill="#eb6834" stroke="#fff" stroke-width="2"/>
<text x="156.0" y="43.5" font-size="10" fill="#52514e" text-anchor="start" font-weight="normal">producer held out</text>
<line x1="48" y1="247.2" x2="318" y2="247.2" stroke="#e3e2de" stroke-width="1"/>
<text x="42.0" y="250.8" font-size="10" fill="#52514e" text-anchor="end" font-weight="normal">50</text>
<line x1="48" y1="197.8" x2="318" y2="197.8" stroke="#e3e2de" stroke-width="1"/>
<text x="42.0" y="201.2" font-size="10" fill="#52514e" text-anchor="end" font-weight="normal">60</text>
<line x1="48" y1="148.2" x2="318" y2="148.2" stroke="#e3e2de" stroke-width="1"/>
<text x="42.0" y="151.8" font-size="10" fill="#52514e" text-anchor="end" font-weight="normal">70</text>
<line x1="48" y1="98.8" x2="318" y2="98.8" stroke="#e3e2de" stroke-width="1"/>
<text x="42.0" y="102.2" font-size="10" fill="#52514e" text-anchor="end" font-weight="normal">80</text>
<line x1="48" y1="247.2" x2="318" y2="247.2" stroke="#b9b8b2" stroke-width="1"/>
<text x="316.0" y="259.2" font-size="9.5" fill="#52514e" text-anchor="end" font-weight="normal">chance</text>
<text x="14.0" y="65.0" font-size="9.5" fill="#52514e" text-anchor="start" font-weight="normal">balanced accuracy (%)</text>
<text x="82.0" y="287.0" font-size="10" fill="#52514e" text-anchor="middle" font-weight="normal">logistic</text>
<text x="132.5" y="287.0" font-size="10" fill="#52514e" text-anchor="middle" font-weight="normal">50</text>
<text x="183.0" y="287.0" font-size="10" fill="#52514e" text-anchor="middle" font-weight="normal">100</text>
<text x="233.5" y="287.0" font-size="10" fill="#52514e" text-anchor="middle" font-weight="normal">200</text>
<text x="284.0" y="287.0" font-size="10" fill="#52514e" text-anchor="middle" font-weight="normal">400</text>
<text x="208.2" y="302.0" font-size="9.5" fill="#52514e" text-anchor="middle" font-weight="normal">gradient boosting, iterations</text>
<text x="82.0" y="302.0" font-size="9.5" fill="#52514e" text-anchor="middle" font-weight="normal">regression</text>
<line x1="107.2" y1="74" x2="107.2" y2="272" stroke="#e3e2de" stroke-width="1"/>
<polyline points="132.5,127.0 183.0,115.6 233.5,106.2 284.0,98.3" fill="none" stroke="#2a78d6" stroke-width="2" stroke-linejoin="round" stroke-linecap="round"/>
<circle cx="132.5" cy="127.0" r="4" fill="#2a78d6" stroke="#fff" stroke-width="2"/>
<circle cx="183.0" cy="115.6" r="4" fill="#2a78d6" stroke="#fff" stroke-width="2"/>
<circle cx="233.5" cy="106.2" r="4" fill="#2a78d6" stroke="#fff" stroke-width="2"/>
<circle cx="284.0" cy="98.3" r="4" fill="#2a78d6" stroke="#fff" stroke-width="2"/>
<polyline points="132.5,231.4 183.0,228.4 233.5,227.4 284.0,227.4" fill="none" stroke="#eb6834" stroke-width="2" stroke-linejoin="round" stroke-linecap="round"/>
<circle cx="132.5" cy="231.4" r="4" fill="#eb6834" stroke="#fff" stroke-width="2"/>
<circle cx="183.0" cy="228.4" r="4" fill="#eb6834" stroke="#fff" stroke-width="2"/>
<circle cx="233.5" cy="227.4" r="4" fill="#eb6834" stroke="#fff" stroke-width="2"/>
<circle cx="284.0" cy="227.4" r="4" fill="#eb6834" stroke="#fff" stroke-width="2"/>
<circle cx="82.0" cy="171.5" r="4" fill="#2a78d6" stroke="#fff" stroke-width="2"/>
<circle cx="82.0" cy="226.0" r="4" fill="#eb6834" stroke="#fff" stroke-width="2"/>
<text x="292.0" y="101.8" font-size="10" fill="#0b0b0b" text-anchor="start" font-weight="normal">80.1</text>
<text x="233.5" y="97.2" font-size="10" fill="#0b0b0b" text-anchor="middle" font-weight="normal">78.5</text>
<text x="292.0" y="221.4" font-size="10" fill="#0b0b0b" text-anchor="start" font-weight="normal">54.0</text>
<text x="124.5" y="121.0" font-size="10" fill="#0b0b0b" text-anchor="end" font-weight="normal">74.3</text>
<text x="124.5" y="225.4" font-size="10" fill="#0b0b0b" text-anchor="end" font-weight="normal">53.2</text>
<text x="82.0" y="162.5" font-size="10" fill="#0b0b0b" text-anchor="middle" font-weight="normal">65.3</text>
<text x="82.0" y="217.0" font-size="10" fill="#0b0b0b" text-anchor="middle" font-weight="normal">54.3</text>
<text x="372.0" y="22.0" font-size="13" fill="#0b0b0b" text-anchor="start" font-weight="bold">b</text>
<text x="388.0" y="22.0" font-size="10.5" fill="#0b0b0b" text-anchor="start" font-weight="normal">Producer held out: twenty fold assignments</text>
<circle cx="377" cy="40" r="3.2" fill="#eb6834" stroke="#fff" stroke-width="1.3"/>
<text x="385.0" y="43.5" font-size="10" fill="#52514e" text-anchor="start" font-weight="normal">one assignment</text>
<line x1="484" y1="40" x2="504" y2="40" stroke="#b9b8b2" stroke-width="5" stroke-linecap="round"/>
<line x1="494" y1="34" x2="494" y2="46" stroke="#0b0b0b" stroke-width="2"/>
<text x="512.0" y="43.5" font-size="10" fill="#52514e" text-anchor="start" font-weight="normal">pooled score, producer bootstrap 95%</text>
<line x1="505.7" y1="74" x2="505.7" y2="272" stroke="#e3e2de" stroke-width="1"/>
<text x="505.7" y="287.0" font-size="10" fill="#52514e" text-anchor="middle" font-weight="normal">45</text>
<line x1="564.0" y1="74" x2="564.0" y2="272" stroke="#e3e2de" stroke-width="1"/>
<text x="564.0" y="287.0" font-size="10" fill="#52514e" text-anchor="middle" font-weight="normal">50</text>
<line x1="622.3" y1="74" x2="622.3" y2="272" stroke="#e3e2de" stroke-width="1"/>
<text x="622.3" y="287.0" font-size="10" fill="#52514e" text-anchor="middle" font-weight="normal">55</text>
<line x1="680.7" y1="74" x2="680.7" y2="272" stroke="#e3e2de" stroke-width="1"/>
<text x="680.7" y="287.0" font-size="10" fill="#52514e" text-anchor="middle" font-weight="normal">60</text>
<line x1="564.0" y1="74" x2="564.0" y2="272" stroke="#b9b8b2" stroke-width="1"/>
<text x="560.0" y="84.0" font-size="9.5" fill="#52514e" text-anchor="end" font-weight="normal">chance</text>
<text x="599.0" y="302.0" font-size="9.5" fill="#52514e" text-anchor="middle" font-weight="normal">balanced accuracy (%)</text>
<text x="372.0" y="112.0" font-size="10" fill="#0b0b0b" text-anchor="start" font-weight="normal">all producers</text>
<text x="372.0" y="125.0" font-size="9.5" fill="#52514e" text-anchor="start" font-weight="normal">96 producers</text>
<text x="372.0" y="140.0" font-size="9.5" fill="#52514e" text-anchor="start" font-weight="normal">51.3 to 56.6</text>
<text x="372.0" y="153.0" font-size="9.5" fill="#52514e" text-anchor="start" font-weight="normal">pooled 51.6 (47.3 to 56.6)</text>
<circle cx="579.2" cy="130.0" r="3.2" fill="#eb6834" stroke="#fff" stroke-width="1.3"/>
<circle cx="585.0" cy="122.5" r="3.2" fill="#eb6834" stroke="#fff" stroke-width="1.3"/>
<circle cx="587.3" cy="130.0" r="3.2" fill="#eb6834" stroke="#fff" stroke-width="1.3"/>
<circle cx="589.7" cy="115.0" r="3.2" fill="#eb6834" stroke="#fff" stroke-width="1.3"/>
<circle cx="595.5" cy="130.0" r="3.2" fill="#eb6834" stroke="#fff" stroke-width="1.3"/>
<circle cx="597.8" cy="122.5" r="3.2" fill="#eb6834" stroke="#fff" stroke-width="1.3"/>
<circle cx="597.8" cy="115.0" r="3.2" fill="#eb6834" stroke="#fff" stroke-width="1.3"/>
<circle cx="601.3" cy="107.5" r="3.2" fill="#eb6834" stroke="#fff" stroke-width="1.3"/>
<circle cx="601.3" cy="100.0" r="3.2" fill="#eb6834" stroke="#fff" stroke-width="1.3"/>
<circle cx="606.0" cy="130.0" r="3.2" fill="#eb6834" stroke="#fff" stroke-width="1.3"/>
<circle cx="610.7" cy="122.5" r="3.2" fill="#eb6834" stroke="#fff" stroke-width="1.3"/>
<circle cx="615.3" cy="130.0" r="3.2" fill="#eb6834" stroke="#fff" stroke-width="1.3"/>
<circle cx="617.7" cy="122.5" r="3.2" fill="#eb6834" stroke="#fff" stroke-width="1.3"/>
<circle cx="618.8" cy="115.0" r="3.2" fill="#eb6834" stroke="#fff" stroke-width="1.3"/>
<circle cx="623.5" cy="130.0" r="3.2" fill="#eb6834" stroke="#fff" stroke-width="1.3"/>
<circle cx="632.8" cy="130.0" r="3.2" fill="#eb6834" stroke="#fff" stroke-width="1.3"/>
<circle cx="636.3" cy="122.5" r="3.2" fill="#eb6834" stroke="#fff" stroke-width="1.3"/>
<circle cx="637.5" cy="115.0" r="3.2" fill="#eb6834" stroke="#fff" stroke-width="1.3"/>
<circle cx="638.7" cy="107.5" r="3.2" fill="#eb6834" stroke="#fff" stroke-width="1.3"/>
<circle cx="641.0" cy="130.0" r="3.2" fill="#eb6834" stroke="#fff" stroke-width="1.3"/>
<line x1="532.5" y1="148" x2="641.0" y2="148" stroke="#b9b8b2" stroke-width="5" stroke-linecap="round"/>
<line x1="582.7" y1="142" x2="582.7" y2="154" stroke="#0b0b0b" stroke-width="2"/>
<text x="372.0" y="212.0" font-size="10" fill="#0b0b0b" text-anchor="start" font-weight="normal">dual-class only</text>
<text x="372.0" y="225.0" font-size="9.5" fill="#52514e" text-anchor="start" font-weight="normal">53 producers</text>
<text x="372.0" y="240.0" font-size="9.5" fill="#52514e" text-anchor="start" font-weight="normal">48.8 to 56.8</text>
<text x="372.0" y="253.0" font-size="9.5" fill="#52514e" text-anchor="start" font-weight="normal">pooled 52.0 (45.8 to 59.8)</text>
<circle cx="550.0" cy="230.0" r="3.2" fill="#eb6834" stroke="#fff" stroke-width="1.3"/>
<circle cx="562.8" cy="230.0" r="3.2" fill="#eb6834" stroke="#fff" stroke-width="1.3"/>
<circle cx="597.8" cy="230.0" r="3.2" fill="#eb6834" stroke="#fff" stroke-width="1.3"/>
<circle cx="599.0" cy="222.5" r="3.2" fill="#eb6834" stroke="#fff" stroke-width="1.3"/>
<circle cx="599.0" cy="215.0" r="3.2" fill="#eb6834" stroke="#fff" stroke-width="1.3"/>
<circle cx="599.0" cy="207.5" r="3.2" fill="#eb6834" stroke="#fff" stroke-width="1.3"/>
<circle cx="600.2" cy="200.0" r="3.2" fill="#eb6834" stroke="#fff" stroke-width="1.3"/>
<circle cx="603.7" cy="192.5" r="3.2" fill="#eb6834" stroke="#fff" stroke-width="1.3"/>
<circle cx="607.2" cy="230.0" r="3.2" fill="#eb6834" stroke="#fff" stroke-width="1.3"/>
<circle cx="608.3" cy="222.5" r="3.2" fill="#eb6834" stroke="#fff" stroke-width="1.3"/>
<circle cx="613.0" cy="215.0" r="3.2" fill="#eb6834" stroke="#fff" stroke-width="1.3"/>
<circle cx="622.3" cy="230.0" r="3.2" fill="#eb6834" stroke="#fff" stroke-width="1.3"/>
<circle cx="623.5" cy="222.5" r="3.2" fill="#eb6834" stroke="#fff" stroke-width="1.3"/>
<circle cx="624.7" cy="215.0" r="3.2" fill="#eb6834" stroke="#fff" stroke-width="1.3"/>
<circle cx="624.7" cy="207.5" r="3.2" fill="#eb6834" stroke="#fff" stroke-width="1.3"/>
<circle cx="629.3" cy="230.0" r="3.2" fill="#eb6834" stroke="#fff" stroke-width="1.3"/>
<circle cx="632.8" cy="222.5" r="3.2" fill="#eb6834" stroke="#fff" stroke-width="1.3"/>
<circle cx="635.2" cy="215.0" r="3.2" fill="#eb6834" stroke="#fff" stroke-width="1.3"/>
<circle cx="638.7" cy="230.0" r="3.2" fill="#eb6834" stroke="#fff" stroke-width="1.3"/>
<circle cx="643.3" cy="222.5" r="3.2" fill="#eb6834" stroke="#fff" stroke-width="1.3"/>
<line x1="515.0" y1="248" x2="678.3" y2="248" stroke="#b9b8b2" stroke-width="5" stroke-linecap="round"/>
<line x1="587.3" y1="242" x2="587.3" y2="254" stroke="#0b0b0b" stroke-width="2"/>
</svg>
